<mxfile host="app.diagrams.net" agent="Mozilla/5.0 (Windows NT 10.0; Win64; x64) AppleWebKit/537.36 (KHTML, like Gecko) Chrome/141.0.0.0 Safari/537.36" version="28.2.8">
  <diagram id="C5RBs43oDa-KdzZeNtuy" name="Page-1">
    <mxGraphModel dx="1158" dy="630" grid="1" gridSize="10" guides="1" tooltips="1" connect="1" arrows="1" fold="1" page="1" pageScale="1" pageWidth="827" pageHeight="1169" math="0" shadow="0">
      <root>
        <mxCell id="WIyWlLk6GJQsqaUBKTNV-0" />
        <mxCell id="WIyWlLk6GJQsqaUBKTNV-1" parent="WIyWlLk6GJQsqaUBKTNV-0" />
        <mxCell id="V4DVvewW9u25lkIsxlTv-62" style="edgeStyle=orthogonalEdgeStyle;rounded=0;orthogonalLoop=1;jettySize=auto;html=1;entryX=0.5;entryY=0;entryDx=0;entryDy=0;" edge="1" parent="WIyWlLk6GJQsqaUBKTNV-1" source="zkfFHV4jXpPFQw0GAbJ--0" target="V4DVvewW9u25lkIsxlTv-29">
          <mxGeometry relative="1" as="geometry" />
        </mxCell>
        <mxCell id="zkfFHV4jXpPFQw0GAbJ--0" value="Usuario" style="swimlane;fontStyle=2;align=center;verticalAlign=top;childLayout=stackLayout;horizontal=1;startSize=26;horizontalStack=0;resizeParent=1;resizeLast=0;collapsible=1;marginBottom=0;rounded=0;shadow=0;strokeWidth=1;" parent="WIyWlLk6GJQsqaUBKTNV-1" vertex="1">
          <mxGeometry x="731" y="70" width="200" height="190" as="geometry">
            <mxRectangle x="230" y="140" width="160" height="26" as="alternateBounds" />
          </mxGeometry>
        </mxCell>
        <mxCell id="zkfFHV4jXpPFQw0GAbJ--1" value="- idUsuario: INT [PK]&#xa;    - nombre: VARCHAR(100)&#xa;    - email: VARCHAR(255)&#xa;    - contraseña_hash: VARCHAR(255)&#xa;    - fecha_registro: DATETIME&#xa;    - ultimo_acceso: DATETIME&#xa;    - activo: ENUM(&#39;activo&#39;, &#39;inactivo&#39;)" style="text;align=left;verticalAlign=top;spacingLeft=4;spacingRight=4;overflow=hidden;rotatable=0;points=[[0,0.5],[1,0.5]];portConstraint=eastwest;" parent="zkfFHV4jXpPFQw0GAbJ--0" vertex="1">
          <mxGeometry y="26" width="200" height="104" as="geometry" />
        </mxCell>
        <mxCell id="zkfFHV4jXpPFQw0GAbJ--4" value="" style="line;html=1;strokeWidth=1;align=left;verticalAlign=middle;spacingTop=-1;spacingLeft=3;spacingRight=3;rotatable=0;labelPosition=right;points=[];portConstraint=eastwest;" parent="zkfFHV4jXpPFQw0GAbJ--0" vertex="1">
          <mxGeometry y="130" width="200" height="8" as="geometry" />
        </mxCell>
        <mxCell id="zkfFHV4jXpPFQw0GAbJ--5" value="+ registrar()&#xa;+ iniciarSesion()&#xa;+ recuperarContraseña()" style="text;align=left;verticalAlign=top;spacingLeft=4;spacingRight=4;overflow=hidden;rotatable=0;points=[[0,0.5],[1,0.5]];portConstraint=eastwest;" parent="zkfFHV4jXpPFQw0GAbJ--0" vertex="1">
          <mxGeometry y="138" width="200" height="52" as="geometry" />
        </mxCell>
        <mxCell id="V4DVvewW9u25lkIsxlTv-41" style="edgeStyle=orthogonalEdgeStyle;rounded=0;orthogonalLoop=1;jettySize=auto;html=1;entryX=0;entryY=0.5;entryDx=0;entryDy=0;" edge="1" parent="WIyWlLk6GJQsqaUBKTNV-1" source="V4DVvewW9u25lkIsxlTv-0" target="V4DVvewW9u25lkIsxlTv-30">
          <mxGeometry relative="1" as="geometry" />
        </mxCell>
        <mxCell id="V4DVvewW9u25lkIsxlTv-48" style="edgeStyle=orthogonalEdgeStyle;rounded=0;orthogonalLoop=1;jettySize=auto;html=1;entryX=0.5;entryY=0;entryDx=0;entryDy=0;" edge="1" parent="WIyWlLk6GJQsqaUBKTNV-1" source="V4DVvewW9u25lkIsxlTv-0" target="V4DVvewW9u25lkIsxlTv-21">
          <mxGeometry relative="1" as="geometry" />
        </mxCell>
        <mxCell id="V4DVvewW9u25lkIsxlTv-0" value="Proyecto" style="swimlane;fontStyle=2;align=center;verticalAlign=top;childLayout=stackLayout;horizontal=1;startSize=26;horizontalStack=0;resizeParent=1;resizeLast=0;collapsible=1;marginBottom=0;rounded=0;shadow=0;strokeWidth=1;" vertex="1" parent="WIyWlLk6GJQsqaUBKTNV-1">
          <mxGeometry x="480" y="310" width="200" height="200" as="geometry">
            <mxRectangle x="230" y="140" width="160" height="26" as="alternateBounds" />
          </mxGeometry>
        </mxCell>
        <mxCell id="V4DVvewW9u25lkIsxlTv-1" value="- idProyecto: INT [PK]&#xa;    - idUsuario: INT [FK]&#xa;    - nombre_proyecto: VARCHAR(150)&#xa;    - descripcion: TEXT&#xa;    - fecha_creacion: DATETIME&#xa;    - ultima_modificacion: DATETIME" style="text;align=left;verticalAlign=top;spacingLeft=4;spacingRight=4;overflow=hidden;rotatable=0;points=[[0,0.5],[1,0.5]];portConstraint=eastwest;" vertex="1" parent="V4DVvewW9u25lkIsxlTv-0">
          <mxGeometry y="26" width="200" height="94" as="geometry" />
        </mxCell>
        <mxCell id="V4DVvewW9u25lkIsxlTv-2" value="" style="line;html=1;strokeWidth=1;align=left;verticalAlign=middle;spacingTop=-1;spacingLeft=3;spacingRight=3;rotatable=0;labelPosition=right;points=[];portConstraint=eastwest;" vertex="1" parent="V4DVvewW9u25lkIsxlTv-0">
          <mxGeometry y="120" width="200" height="8" as="geometry" />
        </mxCell>
        <mxCell id="V4DVvewW9u25lkIsxlTv-3" value="+ crearProyecto()&#xa;    + editarProyecto()&#xa;    + eliminarProyecto()&#xa;    + guardarProyecto()" style="text;align=left;verticalAlign=top;spacingLeft=4;spacingRight=4;overflow=hidden;rotatable=0;points=[[0,0.5],[1,0.5]];portConstraint=eastwest;" vertex="1" parent="V4DVvewW9u25lkIsxlTv-0">
          <mxGeometry y="128" width="200" height="72" as="geometry" />
        </mxCell>
        <mxCell id="V4DVvewW9u25lkIsxlTv-4" value="Habitacion" style="swimlane;fontStyle=2;align=center;verticalAlign=top;childLayout=stackLayout;horizontal=1;startSize=26;horizontalStack=0;resizeParent=1;resizeLast=0;collapsible=1;marginBottom=0;rounded=0;shadow=0;strokeWidth=1;" vertex="1" parent="WIyWlLk6GJQsqaUBKTNV-1">
          <mxGeometry x="376" y="560" width="200" height="170" as="geometry">
            <mxRectangle x="230" y="140" width="160" height="26" as="alternateBounds" />
          </mxGeometry>
        </mxCell>
        <mxCell id="V4DVvewW9u25lkIsxlTv-5" value="- idHabitacion: INT [PK]&#xa;    - idProyecto: INT [FK]&#xa;    - nombre_habitacion: VARCHAR(100)&#xa;    - tipo_habitacion: ENUM(&#39;sala&#39;, &#39;dormitorio&#39;, &#39;cocina&#39;, &#39;baño&#39;)&#xa;    - dimensiones: JSON" style="text;align=left;verticalAlign=top;spacingLeft=4;spacingRight=4;overflow=hidden;rotatable=0;points=[[0,0.5],[1,0.5]];portConstraint=eastwest;" vertex="1" parent="V4DVvewW9u25lkIsxlTv-4">
          <mxGeometry y="26" width="200" height="84" as="geometry" />
        </mxCell>
        <mxCell id="V4DVvewW9u25lkIsxlTv-6" value="" style="line;html=1;strokeWidth=1;align=left;verticalAlign=middle;spacingTop=-1;spacingLeft=3;spacingRight=3;rotatable=0;labelPosition=right;points=[];portConstraint=eastwest;" vertex="1" parent="V4DVvewW9u25lkIsxlTv-4">
          <mxGeometry y="110" width="200" height="8" as="geometry" />
        </mxCell>
        <mxCell id="V4DVvewW9u25lkIsxlTv-7" value="+ crearHabitacion()&#xa;    + modificarDimensiones()&#xa;    + eliminarHabitacion()" style="text;align=left;verticalAlign=top;spacingLeft=4;spacingRight=4;overflow=hidden;rotatable=0;points=[[0,0.5],[1,0.5]];portConstraint=eastwest;" vertex="1" parent="V4DVvewW9u25lkIsxlTv-4">
          <mxGeometry y="118" width="200" height="52" as="geometry" />
        </mxCell>
        <mxCell id="V4DVvewW9u25lkIsxlTv-8" value="Dispositivo" style="swimlane;fontStyle=2;align=center;verticalAlign=top;childLayout=stackLayout;horizontal=1;startSize=26;horizontalStack=0;resizeParent=1;resizeLast=0;collapsible=1;marginBottom=0;rounded=0;shadow=0;strokeWidth=1;" vertex="1" parent="WIyWlLk6GJQsqaUBKTNV-1">
          <mxGeometry x="376" y="810" width="200" height="240" as="geometry">
            <mxRectangle x="230" y="140" width="160" height="26" as="alternateBounds" />
          </mxGeometry>
        </mxCell>
        <mxCell id="V4DVvewW9u25lkIsxlTv-9" value="- idDispositivo: INT [PK]&#xa;    - idHabitacion: INT [FK]&#xa;    - tipo_dispositivo: ENUM(&#39;luz&#39;, &#39;sensor_movimiento&#39;, &#39;termostato&#39;, &#39;actuador&#39;)&#xa;    - nombre_dispositivo: VARCHAR(100)&#xa;    - estado_actual: VARCHAR(20)&#xa;    - valor_sensor: DECIMAL(6,2)&#xa;    - posicion_x: DECIMAL(8,2)&#xa;    - posicion_y: DECIMAL(8,2)&#xa;    - propiedades: JSON" style="text;align=left;verticalAlign=top;spacingLeft=4;spacingRight=4;overflow=hidden;rotatable=0;points=[[0,0.5],[1,0.5]];portConstraint=eastwest;" vertex="1" parent="V4DVvewW9u25lkIsxlTv-8">
          <mxGeometry y="26" width="200" height="134" as="geometry" />
        </mxCell>
        <mxCell id="V4DVvewW9u25lkIsxlTv-10" value="" style="line;html=1;strokeWidth=1;align=left;verticalAlign=middle;spacingTop=-1;spacingLeft=3;spacingRight=3;rotatable=0;labelPosition=right;points=[];portConstraint=eastwest;" vertex="1" parent="V4DVvewW9u25lkIsxlTv-8">
          <mxGeometry y="160" width="200" height="8" as="geometry" />
        </mxCell>
        <mxCell id="V4DVvewW9u25lkIsxlTv-11" value="+ agregarDispositivo()&#xa;    + configurarPropiedades()&#xa;    + cambiarEstado()&#xa;    + obtenerValorSensor()" style="text;align=left;verticalAlign=top;spacingLeft=4;spacingRight=4;overflow=hidden;rotatable=0;points=[[0,0.5],[1,0.5]];portConstraint=eastwest;" vertex="1" parent="V4DVvewW9u25lkIsxlTv-8">
          <mxGeometry y="168" width="200" height="72" as="geometry" />
        </mxCell>
        <mxCell id="V4DVvewW9u25lkIsxlTv-17" value="Componente" style="swimlane;fontStyle=2;align=center;verticalAlign=top;childLayout=stackLayout;horizontal=1;startSize=26;horizontalStack=0;resizeParent=1;resizeLast=0;collapsible=1;marginBottom=0;rounded=0;shadow=0;strokeWidth=1;" vertex="1" parent="WIyWlLk6GJQsqaUBKTNV-1">
          <mxGeometry x="630" y="830" width="200" height="170" as="geometry">
            <mxRectangle x="230" y="140" width="160" height="26" as="alternateBounds" />
          </mxGeometry>
        </mxCell>
        <mxCell id="V4DVvewW9u25lkIsxlTv-18" value="- idComponente: INT [PK]&#xa;    - tipo_componente: VARCHAR(50)&#xa;    - nombre: VARCHAR(100)&#xa;    - descripcion: TEXT&#xa;    - precio_estimado: DECIMAL(8,2)&#xa;    - especificaciones_tecnicas: JSON" style="text;align=left;verticalAlign=top;spacingLeft=4;spacingRight=4;overflow=hidden;rotatable=0;points=[[0,0.5],[1,0.5]];portConstraint=eastwest;" vertex="1" parent="V4DVvewW9u25lkIsxlTv-17">
          <mxGeometry y="26" width="200" height="94" as="geometry" />
        </mxCell>
        <mxCell id="V4DVvewW9u25lkIsxlTv-19" value="" style="line;html=1;strokeWidth=1;align=left;verticalAlign=middle;spacingTop=-1;spacingLeft=3;spacingRight=3;rotatable=0;labelPosition=right;points=[];portConstraint=eastwest;" vertex="1" parent="V4DVvewW9u25lkIsxlTv-17">
          <mxGeometry y="120" width="200" height="8" as="geometry" />
        </mxCell>
        <mxCell id="V4DVvewW9u25lkIsxlTv-20" value="+ obtenerComponentes()&#xa;    + calcularCosto()" style="text;align=left;verticalAlign=top;spacingLeft=4;spacingRight=4;overflow=hidden;rotatable=0;points=[[0,0.5],[1,0.5]];portConstraint=eastwest;" vertex="1" parent="V4DVvewW9u25lkIsxlTv-17">
          <mxGeometry y="128" width="200" height="42" as="geometry" />
        </mxCell>
        <mxCell id="V4DVvewW9u25lkIsxlTv-21" value="Simulacion" style="swimlane;fontStyle=2;align=center;verticalAlign=top;childLayout=stackLayout;horizontal=1;startSize=26;horizontalStack=0;resizeParent=1;resizeLast=0;collapsible=1;marginBottom=0;rounded=0;shadow=0;strokeWidth=1;" vertex="1" parent="WIyWlLk6GJQsqaUBKTNV-1">
          <mxGeometry x="613" y="560" width="200" height="230" as="geometry">
            <mxRectangle x="230" y="140" width="160" height="26" as="alternateBounds" />
          </mxGeometry>
        </mxCell>
        <mxCell id="V4DVvewW9u25lkIsxlTv-22" value="- idSimulacion: INT [PK]&#xa;    - idProyecto: INT [FK]&#xa;    - nombre_simulacion: VARCHAR(100)&#xa;    - fecha_simulacion: DATETIME&#xa;    - duracion_minutos: INT&#xa;    - eventos_simulados: TEXT&#xa;    - resultado: JSON&#xa;    - estado: ENUM(&#39;activa&#39;, &#39;pausada&#39;, &#39;finalizada&#39;)" style="text;align=left;verticalAlign=top;spacingLeft=4;spacingRight=4;overflow=hidden;rotatable=0;points=[[0,0.5],[1,0.5]];portConstraint=eastwest;" vertex="1" parent="V4DVvewW9u25lkIsxlTv-21">
          <mxGeometry y="26" width="200" height="124" as="geometry" />
        </mxCell>
        <mxCell id="V4DVvewW9u25lkIsxlTv-23" value="" style="line;html=1;strokeWidth=1;align=left;verticalAlign=middle;spacingTop=-1;spacingLeft=3;spacingRight=3;rotatable=0;labelPosition=right;points=[];portConstraint=eastwest;" vertex="1" parent="V4DVvewW9u25lkIsxlTv-21">
          <mxGeometry y="150" width="200" height="8" as="geometry" />
        </mxCell>
        <mxCell id="V4DVvewW9u25lkIsxlTv-24" value="+ iniciarSimulacion()&#xa;    + pausarSimulacion()&#xa;    + reanudarSimulacion()&#xa;    + generarReporte()" style="text;align=left;verticalAlign=top;spacingLeft=4;spacingRight=4;overflow=hidden;rotatable=0;points=[[0,0.5],[1,0.5]];portConstraint=eastwest;" vertex="1" parent="V4DVvewW9u25lkIsxlTv-21">
          <mxGeometry y="158" width="200" height="72" as="geometry" />
        </mxCell>
        <mxCell id="V4DVvewW9u25lkIsxlTv-25" value="Configuracion" style="swimlane;fontStyle=2;align=center;verticalAlign=top;childLayout=stackLayout;horizontal=1;startSize=26;horizontalStack=0;resizeParent=1;resizeLast=0;collapsible=1;marginBottom=0;rounded=0;shadow=0;strokeWidth=1;" vertex="1" parent="WIyWlLk6GJQsqaUBKTNV-1">
          <mxGeometry x="983" y="310" width="200" height="160" as="geometry">
            <mxRectangle x="230" y="140" width="160" height="26" as="alternateBounds" />
          </mxGeometry>
        </mxCell>
        <mxCell id="V4DVvewW9u25lkIsxlTv-26" value="- idConfiguracion: INT [PK]&#xa;    - idUsuario: INT [FK]&#xa;    - tema: ENUM(&#39;claro&#39;, &#39;oscuro&#39;)&#xa;    - unidades_medida: ENUM(&#39;metrico&#39;, &#39;imperial&#39;)&#xa;    - preferencias: JSON" style="text;align=left;verticalAlign=top;spacingLeft=4;spacingRight=4;overflow=hidden;rotatable=0;points=[[0,0.5],[1,0.5]];portConstraint=eastwest;" vertex="1" parent="V4DVvewW9u25lkIsxlTv-25">
          <mxGeometry y="26" width="200" height="84" as="geometry" />
        </mxCell>
        <mxCell id="V4DVvewW9u25lkIsxlTv-27" value="" style="line;html=1;strokeWidth=1;align=left;verticalAlign=middle;spacingTop=-1;spacingLeft=3;spacingRight=3;rotatable=0;labelPosition=right;points=[];portConstraint=eastwest;" vertex="1" parent="V4DVvewW9u25lkIsxlTv-25">
          <mxGeometry y="110" width="200" height="8" as="geometry" />
        </mxCell>
        <mxCell id="V4DVvewW9u25lkIsxlTv-28" value="+ guardarConfiguracion()&#xa;    + cargarConfiguracion()" style="text;align=left;verticalAlign=top;spacingLeft=4;spacingRight=4;overflow=hidden;rotatable=0;points=[[0,0.5],[1,0.5]];portConstraint=eastwest;" vertex="1" parent="V4DVvewW9u25lkIsxlTv-25">
          <mxGeometry y="118" width="200" height="42" as="geometry" />
        </mxCell>
        <mxCell id="V4DVvewW9u25lkIsxlTv-29" value="Historia_Actividad" style="swimlane;fontStyle=2;align=center;verticalAlign=top;childLayout=stackLayout;horizontal=1;startSize=26;horizontalStack=0;resizeParent=1;resizeLast=0;collapsible=1;marginBottom=0;rounded=0;shadow=0;strokeWidth=1;" vertex="1" parent="WIyWlLk6GJQsqaUBKTNV-1">
          <mxGeometry x="733" y="310" width="200" height="190" as="geometry">
            <mxRectangle x="230" y="140" width="160" height="26" as="alternateBounds" />
          </mxGeometry>
        </mxCell>
        <mxCell id="V4DVvewW9u25lkIsxlTv-30" value="- idHistorial_Actividad: INT [PK]&#xa;    - idUsuario: INT [FK]&#xa;    - idProyecto: INT [FK]&#xa;    - tipo_actividad: VARCHAR(50)&#xa;    - descripcion: TEXT&#xa;    - fecha_actividad: DATETIME&#xa;    - detalles: JSON" style="text;align=left;verticalAlign=top;spacingLeft=4;spacingRight=4;overflow=hidden;rotatable=0;points=[[0,0.5],[1,0.5]];portConstraint=eastwest;" vertex="1" parent="V4DVvewW9u25lkIsxlTv-29">
          <mxGeometry y="26" width="200" height="114" as="geometry" />
        </mxCell>
        <mxCell id="V4DVvewW9u25lkIsxlTv-31" value="" style="line;html=1;strokeWidth=1;align=left;verticalAlign=middle;spacingTop=-1;spacingLeft=3;spacingRight=3;rotatable=0;labelPosition=right;points=[];portConstraint=eastwest;" vertex="1" parent="V4DVvewW9u25lkIsxlTv-29">
          <mxGeometry y="140" width="200" height="8" as="geometry" />
        </mxCell>
        <mxCell id="V4DVvewW9u25lkIsxlTv-32" value="+ registrarActividad()&#xa;    + obtenerHistorial()" style="text;align=left;verticalAlign=top;spacingLeft=4;spacingRight=4;overflow=hidden;rotatable=0;points=[[0,0.5],[1,0.5]];portConstraint=eastwest;" vertex="1" parent="V4DVvewW9u25lkIsxlTv-29">
          <mxGeometry y="148" width="200" height="42" as="geometry" />
        </mxCell>
        <mxCell id="V4DVvewW9u25lkIsxlTv-33" value="Planilla" style="swimlane;fontStyle=2;align=center;verticalAlign=top;childLayout=stackLayout;horizontal=1;startSize=26;horizontalStack=0;resizeParent=1;resizeLast=0;collapsible=1;marginBottom=0;rounded=0;shadow=0;strokeWidth=1;" vertex="1" parent="WIyWlLk6GJQsqaUBKTNV-1">
          <mxGeometry x="100" y="690" width="200" height="200" as="geometry">
            <mxRectangle x="230" y="140" width="160" height="26" as="alternateBounds" />
          </mxGeometry>
        </mxCell>
        <mxCell id="V4DVvewW9u25lkIsxlTv-34" value="- idPlanilla: INT [PK]&#xa;    - nombre_planilla: VARCHAR(100)&#xa;    - tipo_planilla: ENUM(&#39;residencial&#39;, &#39;comercial&#39;, &#39;personalizado&#39;)&#xa;    - descripcion: TEXT&#xa;    - configuracion: JSON&#xa;    - es_publica: ENUM(&#39;si&#39;, &#39;no&#39;)&#xa;    - usuario_creador: INT [FK]" style="text;align=left;verticalAlign=top;spacingLeft=4;spacingRight=4;overflow=hidden;rotatable=0;points=[[0,0.5],[1,0.5]];portConstraint=eastwest;" vertex="1" parent="V4DVvewW9u25lkIsxlTv-33">
          <mxGeometry y="26" width="200" height="114" as="geometry" />
        </mxCell>
        <mxCell id="V4DVvewW9u25lkIsxlTv-35" value="" style="line;html=1;strokeWidth=1;align=left;verticalAlign=middle;spacingTop=-1;spacingLeft=3;spacingRight=3;rotatable=0;labelPosition=right;points=[];portConstraint=eastwest;" vertex="1" parent="V4DVvewW9u25lkIsxlTv-33">
          <mxGeometry y="140" width="200" height="8" as="geometry" />
        </mxCell>
        <mxCell id="V4DVvewW9u25lkIsxlTv-36" value="+ crearPlanilla()&#xa;    + clonarPlanilla()&#xa;    + exportarPlanilla()" style="text;align=left;verticalAlign=top;spacingLeft=4;spacingRight=4;overflow=hidden;rotatable=0;points=[[0,0.5],[1,0.5]];portConstraint=eastwest;" vertex="1" parent="V4DVvewW9u25lkIsxlTv-33">
          <mxGeometry y="148" width="200" height="52" as="geometry" />
        </mxCell>
        <mxCell id="V4DVvewW9u25lkIsxlTv-53" value="" style="endArrow=diamondThin;endFill=1;endSize=24;html=1;rounded=0;entryX=0.5;entryY=0;entryDx=0;entryDy=0;exitX=0;exitY=0.5;exitDx=0;exitDy=0;" edge="1" parent="WIyWlLk6GJQsqaUBKTNV-1" source="zkfFHV4jXpPFQw0GAbJ--1" target="V4DVvewW9u25lkIsxlTv-0">
          <mxGeometry width="160" relative="1" as="geometry">
            <mxPoint x="376" y="258.75" as="sourcePoint" />
            <mxPoint x="536" y="258.75" as="targetPoint" />
            <Array as="points">
              <mxPoint x="580" y="148" />
            </Array>
          </mxGeometry>
        </mxCell>
        <mxCell id="V4DVvewW9u25lkIsxlTv-56" value="" style="endArrow=diamondThin;endFill=1;endSize=24;html=1;rounded=0;entryX=0.5;entryY=0;entryDx=0;entryDy=0;" edge="1" parent="WIyWlLk6GJQsqaUBKTNV-1" target="V4DVvewW9u25lkIsxlTv-4">
          <mxGeometry width="160" relative="1" as="geometry">
            <mxPoint x="580" y="530" as="sourcePoint" />
            <mxPoint x="480" y="530" as="targetPoint" />
            <Array as="points">
              <mxPoint x="476" y="530" />
            </Array>
          </mxGeometry>
        </mxCell>
        <mxCell id="V4DVvewW9u25lkIsxlTv-57" value="" style="endArrow=diamondThin;endFill=1;endSize=24;html=1;rounded=0;entryX=0.5;entryY=0;entryDx=0;entryDy=0;" edge="1" parent="WIyWlLk6GJQsqaUBKTNV-1" target="V4DVvewW9u25lkIsxlTv-8">
          <mxGeometry width="160" relative="1" as="geometry">
            <mxPoint x="476" y="730" as="sourcePoint" />
            <mxPoint x="590" y="700" as="targetPoint" />
          </mxGeometry>
        </mxCell>
        <mxCell id="V4DVvewW9u25lkIsxlTv-58" value="" style="endArrow=diamondThin;endFill=1;endSize=24;html=1;rounded=0;entryX=0.5;entryY=0;entryDx=0;entryDy=0;" edge="1" parent="WIyWlLk6GJQsqaUBKTNV-1" target="V4DVvewW9u25lkIsxlTv-25">
          <mxGeometry width="160" relative="1" as="geometry">
            <mxPoint x="931" y="150" as="sourcePoint" />
            <mxPoint x="1091" y="150" as="targetPoint" />
            <Array as="points">
              <mxPoint x="1083" y="150" />
            </Array>
          </mxGeometry>
        </mxCell>
        <mxCell id="V4DVvewW9u25lkIsxlTv-59" value="" style="endArrow=diamondThin;endFill=0;endSize=24;html=1;rounded=0;exitX=1;exitY=0.5;exitDx=0;exitDy=0;entryX=0;entryY=0.5;entryDx=0;entryDy=0;" edge="1" parent="WIyWlLk6GJQsqaUBKTNV-1" source="V4DVvewW9u25lkIsxlTv-9" target="V4DVvewW9u25lkIsxlTv-18">
          <mxGeometry width="160" relative="1" as="geometry">
            <mxPoint x="613" y="950" as="sourcePoint" />
            <mxPoint x="773" y="950" as="targetPoint" />
          </mxGeometry>
        </mxCell>
        <mxCell id="V4DVvewW9u25lkIsxlTv-60" value="" style="endArrow=diamondThin;endFill=0;endSize=24;html=1;rounded=0;entryX=0;entryY=0.5;entryDx=0;entryDy=0;exitX=0.5;exitY=0;exitDx=0;exitDy=0;" edge="1" parent="WIyWlLk6GJQsqaUBKTNV-1" source="V4DVvewW9u25lkIsxlTv-33" target="V4DVvewW9u25lkIsxlTv-5">
          <mxGeometry width="160" relative="1" as="geometry">
            <mxPoint x="200" y="644.6" as="sourcePoint" />
            <mxPoint x="360" y="644.6" as="targetPoint" />
            <Array as="points">
              <mxPoint x="200" y="628" />
            </Array>
          </mxGeometry>
        </mxCell>
        <mxCell id="V4DVvewW9u25lkIsxlTv-61" value="" style="endArrow=diamondThin;endFill=0;endSize=24;html=1;rounded=0;entryX=0;entryY=0.5;entryDx=0;entryDy=0;exitX=0.458;exitY=1.018;exitDx=0;exitDy=0;exitPerimeter=0;" edge="1" parent="WIyWlLk6GJQsqaUBKTNV-1" source="V4DVvewW9u25lkIsxlTv-36" target="V4DVvewW9u25lkIsxlTv-9">
          <mxGeometry width="160" relative="1" as="geometry">
            <mxPoint x="190" y="914.6" as="sourcePoint" />
            <mxPoint x="350" y="914.6" as="targetPoint" />
            <Array as="points">
              <mxPoint x="192" y="903" />
            </Array>
          </mxGeometry>
        </mxCell>
      </root>
    </mxGraphModel>
  </diagram>
</mxfile>
